/* XPM */
static char * dash16_xpm[] = {
"16 16 126 2",
"  	c None",
". 	c #FFFFFF",
"+ 	c #C7BBDB",
"@ 	c #AA99C9",
"# 	c #DFD8EA",
"$ 	c #FDFCFD",
"% 	c #9885BF",
"& 	c #29007A",
"* 	c #391483",
"= 	c #5E409B",
"- 	c #826BB1",
"; 	c #A695C7",
"> 	c #C2B6D9",
", 	c #DBD4E7",
"' 	c #F4F2F8",
") 	c #FEF8E4",
"! 	c #FFF9E7",
"~ 	c #2A017A",
"{ 	c #2C047B",
"] 	c #683D5A",
"^ 	c #CC9F2E",
"/ 	c #F1E2B8",
"( 	c #ECE8F2",
"_ 	c #C3B8D9",
": 	c #A696C7",
"< 	c #856EB2",
"[ 	c #63459D",
"} 	c #44218A",
"| 	c #290079",
"1 	c #4C2163",
"2 	c #946639",
"3 	c #C08F23",
"4 	c #C39222",
"5 	c #EADAB4",
"6 	c #CEE6CA",
"7 	c #BCDDB6",
"8 	c #EAF4E9",
"9 	c #F2F8F1",
"0 	c #F7FAF6",
"a 	c #FDFBF3",
"b 	c #F7E29B",
"c 	c #E8BF3B",
"d 	c #DAAF30",
"e 	c #CA9B26",
"f 	c #C69624",
"g 	c #EBDBB5",
"h 	c #A5D29D",
"i 	c #44A334",
"j 	c #46A437",
"k 	c #58AB49",
"l 	c #69B14E",
"m 	c #7EB43C",
"n 	c #9CB829",
"o 	c #BDC332",
"p 	c #E3D03F",
"q 	c #FCD846",
"r 	c #F9DC76",
"s 	c #FBF6E5",
"t 	c #ADD6A6",
"u 	c #4DA73E",
"v 	c #43A02D",
"w 	c #439C1A",
"x 	c #449C10",
"y 	c #449C13",
"z 	c #52A328",
"A 	c #78BB6B",
"B 	c #D9ECD6",
"C 	c #F3F7EC",
"D 	c #DFDB80",
"E 	c #C9C739",
"F 	c #9EB82A",
"G 	c #78AC1E",
"H 	c #4B9E11",
"I 	c #439C1C",
"J 	c #43A02E",
"K 	c #44A233",
"L 	c #BFDFBA",
"M 	c #EDD9A3",
"N 	c #E3B838",
"O 	c #ECC33D",
"P 	c #F3CB40",
"Q 	c #F7D145",
"R 	c #FADD6B",
"S 	c #DDE6B5",
"T 	c #BEDEB8",
"U 	c #98CB8F",
"V 	c #7ABD6F",
"W 	c #69B45C",
"X 	c #C8E3C3",
"Y 	c #E2CA97",
"Z 	c #C49227",
"` 	c #C39128",
" .	c #734360",
"..	c #4A2093",
"+.	c #7E60B5",
"@.	c #B7A7D6",
"#.	c #E6E2F0",
"$.	c #FBFDFB",
"%.	c #E5CF99",
"&.	c #C49329",
"*.	c #905E47",
"=.	c #491977",
"-.	c #2F008C",
";.	c #30018C",
">.	c #451B97",
",.	c #6543A9",
"'.	c #D1C7E5",
").	c #FEEEB5",
"!.	c #FCF1C9",
"~.	c #D9D1E9",
"{.	c #9A85C6",
"].	c #613EA6",
"^.	c #380C91",
"/.	c #32048D",
"(.	c #30028D",
"_.	c #B8A8D7",
":.	c #FFFDFB",
"<.	c #FFFEFE",
"[.	c #FDFDFE",
"}.	c #F7F4FA",
"|.	c #DFD8ED",
"1.	c #C6B9DF",
"2.	c #AC9AD1",
"3.	c #8B70BE",
"4.	c #6643A9",
"5.	c #C3B7DD",
". . . . . . . . . . . . . . . . ",
". . + @ # $ . . . . . . . . . . ",
". . % & & * = - ; > , ' ) ! . . ",
". . % & & & & & & ~ { ] ^ / . . ",
". . ( _ : < [ } | 1 2 3 4 5 . . ",
". . 6 7 8 9 0 a b c d e f g . . ",
". . h i j k l m n o p q r s . . ",
". . t u v w x x x x y z A B . . ",
". . C D E F G H x I J K i L . . ",
". . M N O P Q R S T U V W X . . ",
". . Y Z Z `  ...+.@.#.$.0 $.. . ",
". . %.&.*.=.-.-.-.-.;.>.,.'.. . ",
". . ).!.~.{.].^./.(.-.-.-._.. . ",
". . :.<.. . [.}.|.1.2.3.4.5.. . ",
". . . . . . . . . . . . . . . . ",
". . . . . . . . . . . . . . . . "};
