/* XPM */
static char * dash64_xpm[] = {
"64 64 512 2",
"  	c None",
". 	c #FFFFFF",
"+ 	c #FAF9FB",
"@ 	c #EEEAF3",
"# 	c #F2F0F7",
"$ 	c #F8F7FA",
"% 	c #FDFDFE",
"& 	c #FEFEFE",
"* 	c #D0C7E1",
"= 	c #48258D",
"- 	c #4B298F",
"; 	c #5C3D99",
"> 	c #7459A7",
", 	c #9E8CC2",
"' 	c #CAC0DE",
") 	c #EBE7F2",
"! 	c #FBFBFC",
"~ 	c #CBC2DF",
"{ 	c #340D80",
"] 	c #29007A",
"^ 	c #2B027B",
"/ 	c #45218A",
"( 	c #8068AF",
"_ 	c #AA9ACA",
": 	c #CDC4DF",
"< 	c #E1DCEC",
"[ 	c #F0EDF5",
"} 	c #F9F8FB",
"| 	c #2C037B",
"1 	c #3B1585",
"2 	c #49278E",
"3 	c #583896",
"4 	c #B7ABD2",
"5 	c #E2DEED",
"6 	c #2C047B",
"7 	c #391483",
"8 	c #6E54A4",
"9 	c #907BBA",
"0 	c #B1A3CE",
"a 	c #CAC1DE",
"b 	c #E4DFEE",
"c 	c #F3F1F7",
"d 	c #FCFBFD",
"e 	c #FFFEFE",
"f 	c #FFFDFA",
"g 	c #FFFAE9",
"h 	c #29017A",
"i 	c #2E067D",
"j 	c #350E81",
"k 	c #411B87",
"l 	c #65489E",
"m 	c #A18FC5",
"n 	c #D5CEE4",
"o 	c #F4F2F7",
"p 	c #FCFCFD",
"q 	c #FFFAEF",
"r 	c #FFE68A",
"s 	c #FFE78A",
"t 	c #FFFEFC",
"u 	c #310A7E",
"v 	c #573796",
"w 	c #775CA9",
"x 	c #927EBB",
"y 	c #B1A2CE",
"z 	c #DAD3E7",
"A 	c #EEEBF4",
"B 	c #FDFDFD",
"C 	c #FEFDFE",
"D 	c #FFFCF5",
"E 	c #FFEFB6",
"F 	c #FFDF67",
"G 	c #FFDA48",
"H 	c #FFE683",
"I 	c #411D88",
"J 	c #8C78B7",
"K 	c #C7BEDC",
"L 	c #ECE8F1",
"M 	c #FCF8EC",
"N 	c #FEE278",
"O 	c #FED947",
"P 	c #310874",
"Q 	c #794D4E",
"R 	c #C3962F",
"S 	c #D3A52C",
"T 	c #D8AC2F",
"U 	c #E0B634",
"V 	c #EEC53D",
"W 	c #F8DF7F",
"X 	c #FEFEFC",
"Y 	c #290079",
"Z 	c #2B0276",
"` 	c #4E2362",
" .	c #AF7F2B",
"..	c #C29122",
"+.	c #C39222",
"@.	c #D6B56A",
"#.	c #FEFDFB",
"$.	c #CCC2DF",
"%.	c #340E81",
"&.	c #3C116D",
"*.	c #8E603E",
"=.	c #BA8925",
"-.	c #D1C9E2",
";.	c #9C89C0",
">.	c #785FAA",
",.	c #60439C",
"'.	c #44218B",
").	c #340E80",
"!.	c #300774",
"~.	c #653955",
"{.	c #B1812A",
"].	c #FAF9FC",
"^.	c #ECE9F3",
"/.	c #E3DEED",
"(.	c #A493C6",
"_.	c #553595",
":.	c #3A1483",
"<.	c #471D66",
"[.	c #A17133",
"}.	c #C08F22",
"|.	c #FBFAFC",
"1.	c #E6E2EF",
"2.	c #B3A5CF",
"3.	c #8E79B8",
"4.	c #7A62AC",
"5.	c #593A97",
"6.	c #3C1786",
"7.	c #2D057C",
"8.	c #3B116E",
"9.	c #76494B",
"0.	c #F6F5F9",
"a.	c #EAE7F1",
"b.	c #C5BAD9",
"c.	c #684BA0",
"d.	c #401C87",
"e.	c #2B027A",
"f.	c #290078",
"g.	c #4D2162",
"h.	c #B58428",
"i.	c #C19022",
"j.	c #FAFAFC",
"k.	c #EFECF5",
"l.	c #CDC4E0",
"m.	c #AA9BCA",
"n.	c #9581BC",
"o.	c #7257A5",
"p.	c #552F75",
"q.	c #92643F",
"r.	c #BF8F22",
"s.	c #F3F8F2",
"t.	c #DDEEDA",
"u.	c #EBF4E9",
"v.	c #F5F9F4",
"w.	c #FBFDFB",
"x.	c #FDFEFD",
"y.	c #FEFFFE",
"z.	c #FFFCF4",
"A.	c #FFECA9",
"B.	c #FCD746",
"C.	c #F4CC3F",
"D.	c #DDB131",
"E.	c #CEA029",
"F.	c #C89825",
"G.	c #C59523",
"H.	c #D2E8CE",
"I.	c #4DA73E",
"J.	c #4BA63C",
"K.	c #67B35A",
"L.	c #78BC6D",
"M.	c #86C27B",
"N.	c #A7D29F",
"O.	c #E3F1E1",
"P.	c #FFF1C5",
"Q.	c #FFE06E",
"R.	c #FFDA4A",
"S.	c #FCD646",
"T.	c #F4CD40",
"U.	c #EDC53C",
"V.	c #E9C139",
"W.	c #E0B533",
"X.	c #CC9E28",
"Y.	c #C59422",
"Z.	c #44A334",
"`.	c #46A336",
" +	c #5DAE4F",
".+	c #9ACC92",
"++	c #C8E3C3",
"@+	c #D4E9D1",
"#+	c #E5F2E3",
"$+	c #F5FAF5",
"%+	c #FCFDFC",
"&+	c #FFF9E6",
"*+	c #FFE996",
"=+	c #FFDA4B",
"-+	c #F7D142",
";+	c #E6BD39",
">+	c #D4A72C",
",+	c #D0A229",
"'+	c #CB9C26",
")+	c #46A337",
"!+	c #54AB45",
"~+	c #64B257",
"{+	c #72B966",
"]+	c #8DC683",
"^+	c #D2E9CF",
"/+	c #EFF7EF",
"(+	c #FBFCFA",
"_+	c #FEEEB1",
":+	c #FFDD5C",
"<+	c #FED847",
"[+	c #FAD444",
"}+	c #F4CD41",
"|+	c #F4DB82",
"1+	c #44A132",
"2+	c #46A12F",
"3+	c #54A326",
"4+	c #7DAE21",
"5+	c #ACBE2E",
"6+	c #BDC333",
"7+	c #D1C939",
"8+	c #ECD341",
"9+	c #F9D745",
"0+	c #FDD947",
"a+	c #FEDA48",
"b+	c #FFDC58",
"c+	c #FFE898",
"d+	c #FFFFFE",
"e+	c #44A333",
"f+	c #44A231",
"g+	c #449C1C",
"h+	c #449C11",
"i+	c #449C10",
"j+	c #489D10",
"k+	c #509F13",
"l+	c #56A114",
"m+	c #71A91D",
"n+	c #B7C131",
"o+	c #EAD240",
"p+	c #FFE06D",
"q+	c #FFF9E5",
"r+	c #FFFDFC",
"s+	c #44A233",
"t+	c #449E25",
"u+	c #449C16",
"v+	c #499D10",
"w+	c #69A71A",
"x+	c #95B627",
"y+	c #A2BA2B",
"z+	c #B6C131",
"A+	c #E4D03F",
"B+	c #FAD846",
"C+	c #FFDD5D",
"D+	c #FFF0B8",
"E+	c #FFFEF9",
"F+	c #44A02F",
"G+	c #449D18",
"H+	c #459C10",
"I+	c #55A013",
"J+	c #90B426",
"K+	c #E1DC7D",
"L+	c #F3F8EF",
"M+	c #F9FBF8",
"N+	c #43A130",
"O+	c #449E21",
"P+	c #449C13",
"Q+	c #44A028",
"R+	c #47A438",
"S+	c #57AC49",
"T+	c #7ABD6E",
"U+	c #90C787",
"V+	c #9CCE94",
"W+	c #D3E9D0",
"X+	c #44A232",
"Y+	c #44A02C",
"Z+	c #449C14",
"`+	c #449C12",
" @	c #449D20",
".@	c #81C176",
"+@	c #D2E9CE",
"@@	c #4EA73E",
"#@	c #44A131",
"$@	c #449D1C",
"%@	c #449D1B",
"&@	c #44A12D",
"*@	c #FAFCFA",
"=@	c #DEEEDB",
"-@	c #98CB8F",
";@	c #79BC6E",
">@	c #72B967",
",@	c #5EAF4F",
"'@	c #45A027",
")@	c #449C15",
"!@	c #449F27",
"~@	c #FAF6D8",
"{@	c #EFD95C",
"]@	c #DECE3E",
"^@	c #D5CC3B",
"/@	c #AFBE2F",
"(@	c #60A417",
"_@	c #449E22",
":@	c #FFFAEA",
"<@	c #FFECA5",
"[@	c #FFDB53",
"}@	c #F7D745",
"|@	c #E9D240",
"1@	c #92B527",
"2@	c #85B022",
"3@	c #70AA1C",
"4@	c #4E9E12",
"5@	c #449C19",
"6@	c #439F29",
"7@	c #43A132",
"8@	c #FFF6D8",
"9@	c #FFDC5B",
"0@	c #FDD846",
"a@	c #FAD746",
"b@	c #F7D644",
"c@	c #E8D140",
"d@	c #CFC938",
"e@	c #7FAE20",
"f@	c #489C10",
"g@	c #43A031",
"h@	c #FFE68B",
"i@	c #FFDA4C",
"j@	c #FBD847",
"k@	c #EDD341",
"l@	c #D3CB39",
"m@	c #AEBF35",
"n@	c #9EC66B",
"o@	c #85C075",
"p@	c #5BAE4D",
"q@	c #45A336",
"r@	c #F2E6CB",
"s@	c #D4A738",
"t@	c #EBC03B",
"u@	c #F6CF43",
"v@	c #FAD445",
"w@	c #FBD645",
"x@	c #FFDA49",
"y@	c #F7FBF7",
"z@	c #DEEEDC",
"A@	c #96CA8D",
"B@	c #5FAF51",
"C@	c #53AA44",
"D@	c #4FA83F",
"E@	c #45A335",
"F@	c #F0E4CB",
"G@	c #C79732",
"H@	c #C49227",
"I@	c #C69528",
"J@	c #CD9D2B",
"K@	c #D8AB32",
"L@	c #DBAE33",
"M@	c #E3B937",
"N@	c #F5CE42",
"O@	c #FFDA4D",
"P@	c #FFEDAD",
"Q@	c #FFFAEE",
"R@	c #F6FAF6",
"S@	c #E6F2E5",
"T@	c #C3E1BE",
"U@	c #B3D9AD",
"V@	c #9FCF97",
"W@	c #47A437",
"X@	c #C69527",
"Y@	c #CE9E2B",
"Z@	c #DDB135",
"`@	c #EEC73E",
" #	c #F3CC41",
".#	c #FFE37C",
"+#	c #FFF8E3",
"@#	c #F5F9F5",
"##	c #E5F1E2",
"$#	c #BADCB4",
"%#	c #7EBE72",
"&#	c #66B45A",
"*#	c #60B052",
"=#	c #8AC581",
"-#	c #C59427",
";#	c #C89729",
">#	c #CE9E2C",
",#	c #D4A730",
"'#	c #CCA145",
")#	c #D0BAAB",
"!#	c #F8F5F2",
"~#	c #FEFEFD",
"{#	c #F8FCF8",
"]#	c #F1F7F0",
"^#	c #EBF5E9",
"/#	c #C39127",
"(#	c #B7852E",
"_#	c #88574C",
":#	c #3C0D80",
"<#	c #30018B",
"[#	c #35098E",
"}#	c #4D259C",
"|#	c #7354B1",
"1#	c #A895CE",
"2#	c #BEAFDA",
"3#	c #D2C9E6",
"4#	c #EDE9F4",
"5#	c #AB7A34",
"6#	c #481878",
"7#	c #2F008B",
"8#	c #2F008C",
"9#	c #30028D",
"0#	c #36088F",
"a#	c #3F1393",
"b#	c #4F279D",
"c#	c #6D4CAD",
"d#	c #B6A7D7",
"e#	c #F2F1F8",
"f#	c #B38130",
"g#	c #6E3E5E",
"h#	c #340486",
"i#	c #32048D",
"j#	c #401594",
"k#	c #5A35A3",
"l#	c #9179C1",
"m#	c #A794CE",
"n#	c #BBACD9",
"o#	c #DDD6EC",
"p#	c #C18F27",
"q#	c #8F5F47",
"r#	c #390982",
"s#	c #30018C",
"t#	c #3D1192",
"u#	c #5D38A4",
"v#	c #937BC3",
"w#	c #DCD4EA",
"x#	c #F8F7FB",
"y#	c #A1703B",
"z#	c #5D2D69",
"A#	c #330387",
"B#	c #3C1193",
"C#	c #4E279D",
"D#	c #6F4FAF",
"E#	c #AE9BD1",
"F#	c #B8862C",
"G#	c #7D4D55",
"H#	c #350685",
"I#	c #7253B1",
"J#	c #F7EDCE",
"K#	c #DAAF3C",
"L#	c #C99829",
"M#	c #946345",
"N#	c #491977",
"O#	c #300189",
"P#	c #FFF6D3",
"Q#	c #FEDB50",
"R#	c #F8D143",
"S#	c #F0C740",
"T#	c #DFB850",
"U#	c #A17E81",
"V#	c #5C379F",
"W#	c #4B239C",
"X#	c #34078F",
"Y#	c #FFDB51",
"Z#	c #FEE896",
"`#	c #FEF9E9",
" $	c #F4F3F9",
".$	c #EBE6F4",
"+$	c #D7CEE8",
"@$	c #BCADD9",
"#$	c #5B37A4",
"$$	c #2F018C",
"%$	c #FFDB52",
"&$	c #FFE275",
"*$	c #FFF3CB",
"=$	c #EEEBF5",
"-$	c #D5CCE7",
";$	c #B0A0D3",
">$	c #886DBC",
",$	c #6D4DAD",
"'$	c #3B0F93",
")$	c #FFF7DC",
"!$	c #FFF0BC",
"~$	c #FFFDF9",
"{$	c #FEFEFF",
"]$	c #EFEDF7",
"^$	c #DBD3EA",
"/$	c #A793CD",
"($	c #7050AF",
"_$	c #370A8F",
":$	c #FFFEFD",
"<$	c #F5F3F9",
"[$	c #E3DDEF",
"}$	c #C5B9DE",
"|$	c #A38FCB",
"1$	c #6D4CAE",
"2$	c #461D99",
"3$	c #F9F8FC",
"4$	c #E8E3F1",
"5$	c #BDAFDA",
"6$	c #876DBC",
"7$	c #4B229A",
"8$	c #3D1193",
"9$	c #380B90",
"0$	c #32038D",
"a$	c #ECE7F3",
"b$	c #D8D0E9",
"c$	c #BCAED9",
"d$	c #A18DCB",
"e$	c #7E62B7",
"f$	c #36098F",
"g$	c #F9F7FB",
"h$	c #ECE8F4",
"i$	c #CCC0E2",
"j$	c #A08BC9",
"k$	c #7051AF",
"l$	c #8C73BF",
"m$	c #FBFBFD",
". . . . . . . . . . . . . . . . . . . . . . . . . . . . . . . . . . . . . . . . . . . . . . . . . . . . . . . . . . . . . . . . ",
". . . . . . . . . . . . . . . . . . . . . . . . . . . . . . . . . . . . . . . . . . . . . . . . . . . . . . . . . . . . . . . . ",
". . . . . . . . . . . . . . . . . . . . . . . . . . . . . . . . . . . . . . . . . . . . . . . . . . . . . . . . . . . . . . . . ",
". . . . . . . . . . . . . . . . . . . . . . . . . . . . . . . . . . . . . . . . . . . . . . . . . . . . . . . . . . . . . . . . ",
". . . . . . . . . . . . . . . . . . . . . . . . . . . . . . . . . . . . . . . . . . . . . . . . . . . . . . . . . . . . . . . . ",
". . . . . . . . . + @ # $ % & . . . . . . . . . . . . . . . . . . . . . . . . . . . . . . . . . . . . . . . . . . . . . . . . . ",
". . . . . . . . . * = - ; > , ' ) ! % . . . . . . . . . . . . . . . . . . . . . . . . . . . . . . . . . . . . . . . . . . . . . ",
". . . . . . . . . ~ { ] ] ] ] ] ^ / ( _ : < [ } & . . . . . . . . . . . . . . . . . . . . . . . . . . . . . . . . . . . . . . . ",
". . . . . . . . . ~ { ] ] ] ] ] ] ] ] ] | 1 2 3 ( 4 5 } & . . . . . . . . . . . . . . . . . . . . . . . . . . . . . . . . . . . ",
". . . . . . . . . ~ { ] ] ] ] ] ] ] ] ] ] ] ] ] ] ] 6 7 8 9 0 a b c d . . . . . . . . . . . . . . . . e f g e . . . . . . . . . ",
". . . . . . . . . ~ { ] ] ] ] ] ] ] ] ] ] ] ] ] ] ] ] ] ] ] h i j k l m n o p & . . . . . . . . . . . q r s t . . . . . . . . . ",
". . . . . . . . . ~ { ] ] ] ] ] ] ] ] ] ] ] ] ] ] ] ] ] ] ] ] ] ] ] ] ] h u v w x y z A B C . . . D E F G H t . . . . . . . . . ",
". . . . . . . . . ~ { ] ] ] ] ] ] ] ] ] ] ] ] ] ] ] ] ] ] ] ] ] ] ] ] ] ] ] ] ] ] ] ] ] I J K L M N O O G H t . . . . . . . . . ",
". . . . . . . . . ~ { ] ] ] ] ] ] ] ] ] ] ] ] ] ] ] ] ] ] ] ] ] ] ] ] ] ] ] ] ] ] ] ] ] ] ] P Q R S T U V W X . . . . . . . . . ",
". . . . . . . . . ~ { ] ] ] ] ] ] ] ] ] ] ] ] ] ] ] ] ] ] ] ] ] ] ] ] ] ] ] ] ] ] ] ] Y Z `  ...+.+.+.+.+.@.#.. . . . . . . . . ",
". . . . . . . . . $.%.] ] ] ] ] ] ] ] ] ] ] ] ] ] ] ] ] ] ] ] ] ] ] ] ] ] ] ] ] ] ] Y &.*.=.+.+.+.+.+.+.+.@.#.. . . . . . . . . ",
". . . . . . . . . + -.;.>.,.'.).^ ] ] ] ] ] ] ] ] ] ] ] ] ] ] ] ] ] ] ] ] ] ] ] Y !.~.{.+.+.+.+.+.+.+.+.+.@.#.. . . . . . . . . ",
". . . . . . . . . . . . & ].^./.n (._.:.] ] ] ] ] ] ] ] ] ] ] ] ] ] ] ] ] ] ] ] <.[.}.+.+.+.+.+.+.+.+.+.+.@.#.. . . . . . . . . ",
". . . . . . . . . . . . . . . . . . B |.1.2.3.4.5.6.7.] ] ] ] ] ] ] ] ] ] Y 8.9.=...+.+.+.+.+.+.+.+.+.+.+.@.#.. . . . . . . . . ",
". . . . . . . . . . . . . . . . . . . . . . & & |.0.a.b.c.d.e.] ] ] ] ] f.g.h.i.+.+.+.+.+.+.+.+.+.+.+.+.+.@.#.. . . . . . . . . ",
". . . . . . . . . . . . . . . . . . . . . . . . . . . . . j.k.l.m.n.o.p.q.r.+.+.+.+.+.+.+.+.+.+.+.+.+.+.+.@.#.. . . . . . . . . ",
". . . . . . . . . s.t.u.v.w.x.& y.. . . . . . . . . . . . . . . e z.A.G B.C.D.E.F.G.+.+.+.+.+.+.+.+.+.+.+.@.#.. . . . . . . . . ",
". . . . . . . . . H.I.J.K.L.M.N.O.v.B . . . . . . . . . . . . t P.Q.R.G G G G G S.T.U.V.W.X.Y.+.+.+.+.+.+.@.#.. . . . . . . . . ",
". . . . . . . . . H.I.Z.Z.Z.Z.Z.Z.`. +.+++@+#+$+%+& . . . t &+*+=+G G G G G G G G G G G G O B.-+;+>+,+'+G.@.#.. . . . . . . . . ",
". . . . . . . . . H.I.Z.Z.Z.Z.Z.Z.Z.Z.Z.Z.)+!+~+{+]+^+/+(+_+:+G G G G G G G G G G G G G G G G G G O <+[+}+|+X . . . . . . . . . ",
". . . . . . . . . H.I.Z.Z.Z.Z.Z.Z.Z.Z.Z.Z.Z.Z.Z.Z.Z.1+2+3+4+5+6+7+8+9+0+O a+G G G G G G G G G G G G G b+c+z.d+. . . . . . . . . ",
". . . . . . . . . H.I.Z.Z.Z.Z.Z.Z.Z.Z.Z.Z.Z.Z.Z.e+f+g+h+i+i+i+i+j+k+l+m+n+o+9+0+a+G G G G G G G G G p+q+r+. . . . . . . . . . . ",
". . . . . . . . . H.I.Z.Z.Z.Z.Z.Z.Z.Z.Z.Z.Z.Z.s+t+u+i+i+i+i+i+i+i+i+i+i+i+i+v+w+x+y+z+A+B+0+G G C+D+E+. . . . . . . . . . . . . ",
". . . . . . . . . H.I.Z.Z.Z.Z.Z.Z.Z.Z.Z.e+s+F+G+i+i+i+i+i+i+i+i+i+i+i+i+i+i+i+i+i+i+i+i+H+I+J+K+L+M+%+& & y.. . . . . . . . . . ",
". . . . . . . . . H.I.Z.Z.Z.Z.Z.Z.Z.Z.Z.N+O+P+i+i+i+i+i+i+i+i+i+i+i+i+i+i+i+i+i+i+i+i+i+i+G+Q+s+R+S+T+U+V+W+& . . . . . . . . . ",
". . . . . . . . . H.I.Z.Z.Z.Z.Z.Z.Z.X+Y+Z+i+i+i+i+i+i+i+i+i+i+i+i+i+i+i+i+i+i+i+i+i+i+`+ @X+Z.Z.Z.Z.Z.Z.Z..@%+. . . . . . . . . ",
". . . . . . . . . +@@@Z.Z.Z.Z.Z.e+#@$@i+i+i+i+i+i+i+i+i+i+i+i+i+i+i+i+i+i+i+i+i+i+i+%@&@e+Z.Z.Z.Z.Z.Z.Z.Z..@%+. . . . . . . . . ",
". . . . . . . . . & *@=@-@;@>@,@'@`+i+i+i+i+i+i+i+i+i+i+i+i+i+i+i+i+i+i+i+i+i+i+)@!@s+Z.Z.Z.Z.Z.Z.Z.Z.Z.Z..@%+. . . . . . . . . ",
". . . . . . . . . . . . & x.~@{@]@^@/@(@i+i+i+i+i+i+i+i+i+i+i+i+i+i+i+i+i+i+i+_@F+s+Z.Z.Z.Z.Z.Z.Z.Z.Z.Z.Z..@%+. . . . . . . . . ",
". . . . . . . . . . . d+:@<@[@G G G O 0+}@|@6+1@2@3@4@i+i+i+i+i+i+i+i+i+i+5@6@7@Z.Z.Z.Z.Z.Z.Z.Z.Z.Z.Z.Z.Z..@%+. . . . . . . . . ",
". . . . . . . . . . . 8@9@G G G G G G G G O O O 0@a@b@c@d@e@f@i+i+i+i+i+t+g@s+s+Z.Z.Z.Z.Z.Z.Z.Z.Z.Z.Z.Z.Z..@%+. . . . . . . . . ",
". . . . . . . . . :@h@i@G G G G G G G G G G G G G G G G a+0+j@k@l@m@n@o@p@q@Z.Z.Z.Z.Z.Z.Z.Z.Z.Z.Z.Z.Z.Z.Z..@%+. . . . . . . . . ",
". . . . . . . . . r@s@t@u@v@w@O G G G G G G G G G G G G G G G x@C+8@t & %+y@z@A@B@C@D@E@Z.Z.Z.Z.Z.Z.Z.Z.Z..@%+. . . . . . . . . ",
". . . . . . . . . F@G@H@H@I@J@K@L@M@N@O G G G G G G G G G G O@P@Q@e . . . . . & %+R@S@T@U@V@{+W@Z.Z.Z.Z.Z..@%+. . . . . . . . . ",
". . . . . . . . . F@G@H@H@H@H@H@H@H@H@X@Y@Z@`@ #u@S.G G R..#+#e . . . . . . . . . . . . y.& %+@###$#%#&#*#=#%+. . . . . . . . . ",
". . . . . . . . . F@G@H@H@H@H@H@H@H@H@H@H@H@H@-#;#>#,#'#)#!#& . . . . . . . . . . . . . . . . . . & ~#{#]#^#& . . . . . . . . . ",
". . . . . . . . . F@G@H@H@H@H@H@H@H@H@H@H@H@H@H@/#(#_#:#<#[#}#|#1#2#3#4#d & . . . . . . . . . . . . . . . . . . . . . . . . . . ",
". . . . . . . . . F@G@H@H@H@H@H@H@H@H@H@H@H@H@H@5#6#7#7#8#8#8#8#8#9#0#a#b#c#d#e#% . . . . . . . . . . . . . . . . . . . . . . . ",
". . . . . . . . . F@G@H@H@H@H@H@H@H@H@H@H@H@f#g#h#7#8#8#8#8#8#8#8#8#8#8#8#8#8#i#j#k#l#m#n#o#& . . . . . . . . . . . . . . . . . ",
". . . . . . . . . F@G@H@H@H@H@H@H@H@H@/#p#q#r#7#8#8#8#8#8#8#8#8#8#8#8#8#8#8#8#8#8#8#8#8#8#s#t#u#v#w#x#].p & . . . . . . . . . . ",
". . . . . . . . . F@G@H@H@H@H@H@H@H@/#y#z#A#7#8#8#8#8#8#8#8#8#8#8#8#8#8#8#8#8#8#8#8#8#8#8#8#8#8#8#i#B#C#D#E#% . . . . . . . . . ",
". . . . . . . . . F@G@H@H@H@H@H@/#F#G#H#7#8#8#8#8#8#8#8#8#8#8#8#8#8#8#8#8#8#8#8#8#8#8#8#8#8#8#8#8#8#8#8#8#I#d . . . . . . . . . ",
". . . . . . . . . J#K#L#H@H@H@/#M#N#O#7#8#8#8#8#8#8#8#8#8#8#8#8#8#8#8#8#8#8#8#8#8#8#8#8#8#8#8#8#8#8#8#8#8#I#d . . . . . . . . . ",
". . . . . . . . . P#Q#B.R#S#T#U#V#W#X#8#8#8#8#8#8#8#8#8#8#8#8#8#8#8#8#8#8#8#8#8#8#8#8#8#8#8#8#8#8#8#8#8#8#I#d . . . . . . . . . ",
". . . . . . . . . P#Y#G x@Z#`#!  $.$+$@$v##$$$8#8#8#8#8#8#8#8#8#8#8#8#8#8#8#8#8#8#8#8#8#8#8#8#8#8#8#8#8#8#I#d . . . . . . . . . ",
". . . . . . . . . P#%$&$*$r+. . . . . . B ].=$-$;$>$,$k#'$s#8#8#8#8#8#8#8#8#8#8#8#8#8#8#8#8#8#8#8#8#8#8#8#I#d . . . . . . . . . ",
". . . . . . . . . )$!$~$e . . . . . . . . . . {$& & p } ]$^$/$($_$8#8#8#8#8#8#8#8#8#8#8#8#8#8#8#8#8#8#8#8#I#d . . . . . . . . . ",
". . . . . . . . . e :$. . . . . . . . . . . . . . . . . . . . d <$[$}$|$>$1$2$s#8#8#8#8#8#8#8#8#8#8#8#8#8#I#d . . . . . . . . . ",
". . . . . . . . . . . . . . . . . . . . . . . . . . . . . . . . . . . . & % 3$4$5$6$7$8$9$0$8#8#8#8#8#8#8#I#d . . . . . . . . . ",
". . . . . . . . . . . . . . . . . . . . . . . . . . . . . . . . . . . . . . . . % B } a$b$c$d$e$#$f$8#8#8#I#d . . . . . . . . . ",
". . . . . . . . . . . . . . . . . . . . . . . . . . . . . . . . . . . . . . . . . . . . . . . B g$h$i$j$k$l$d . . . . . . . . . ",
". . . . . . . . . . . . . . . . . . . . . . . . . . . . . . . . . . . . . . . . . . . . . . . . . . . % m$} & . . . . . . . . . ",
". . . . . . . . . . . . . . . . . . . . . . . . . . . . . . . . . . . . . . . . . . . . . . . . . . . . . . . . . . . . . . . . ",
". . . . . . . . . . . . . . . . . . . . . . . . . . . . . . . . . . . . . . . . . . . . . . . . . . . . . . . . . . . . . . . . ",
". . . . . . . . . . . . . . . . . . . . . . . . . . . . . . . . . . . . . . . . . . . . . . . . . . . . . . . . . . . . . . . . ",
". . . . . . . . . . . . . . . . . . . . . . . . . . . . . . . . . . . . . . . . . . . . . . . . . . . . . . . . . . . . . . . . ",
". . . . . . . . . . . . . . . . . . . . . . . . . . . . . . . . . . . . . . . . . . . . . . . . . . . . . . . . . . . . . . . . ",
". . . . . . . . . . . . . . . . . . . . . . . . . . . . . . . . . . . . . . . . . . . . . . . . . . . . . . . . . . . . . . . . ",
". . . . . . . . . . . . . . . . . . . . . . . . . . . . . . . . . . . . . . . . . . . . . . . . . . . . . . . . . . . . . . . . "};
