/* XPM */
static char * dash32_xpm[] = {
"32 32 261 2",
"  	c None",
". 	c #FFFFFF",
"+ 	c #FBFBFD",
"@ 	c #E5E1EE",
"# 	c #F7F5F9",
"$ 	c #FEFEFE",
"% 	c #EBE7F2",
"& 	c #391384",
"* 	c #30097D",
"= 	c #5E3E99",
"- 	c #9985BE",
"; 	c #D8D1E6",
"> 	c #FCFCFD",
", 	c #EAE7F2",
"' 	c #350F81",
") 	c #29007A",
"! 	c #340D80",
"~ 	c #513092",
"{ 	c #7055A5",
"] 	c #8B76B6",
"^ 	c #AE9ECC",
"/ 	c #CEC6E1",
"( 	c #EFEDF5",
"_ 	c #FDFDFD",
": 	c #FFFCF9",
"< 	c #FFFEFE",
"[ 	c #4B278E",
"} 	c #7F67AF",
"| 	c #BEB3D6",
"1 	c #E4E0EE",
"2 	c #F0EEF5",
"3 	c #F7F6FA",
"4 	c #FDFDFE",
"5 	c #FEFDF9",
"6 	c #FFF4CD",
"7 	c #FFE78C",
"8 	c #FFFDF8",
"9 	c #2E067D",
"0 	c #421F89",
"a 	c #583997",
"b 	c #846796",
"c 	c #D9B868",
"d 	c #E9C13D",
"e 	c #F7DC76",
"f 	c #FEFDF8",
"g 	c #ECE9F3",
"h 	c #401C87",
"i 	c #290079",
"j 	c #310872",
"k 	c #6B3F51",
"l 	c #BF8E22",
"m 	c #C39222",
"n 	c #D3B060",
"o 	c #FCFBF7",
"p 	c #FCFBFD",
"q 	c #DDD7E9",
"r 	c #CBC3DE",
"s 	c #9987BF",
"t 	c #7054A4",
"u 	c #371183",
"v 	c #51255F",
"w 	c #A8782F",
"x 	c #C08F22",
"y 	c #E3DDEC",
"z 	c #B8ABD2",
"A 	c #8B76B7",
"B 	c #6D51A3",
"C 	c #553595",
"D 	c #411D88",
"E 	c #2C047C",
"F 	c #3D136B",
"G 	c #805345",
"H 	c #BD8C23",
"I 	c #FDFEFD",
"J 	c #F8FBF8",
"K 	c #F6F5F9",
"L 	c #F1EFF6",
"M 	c #E7E2EF",
"N 	c #C2A791",
"O 	c #CEA336",
"P 	c #C99824",
"Q 	c #EDF6EB",
"R 	c #52A943",
"S 	c #67B45A",
"T 	c #7DBE72",
"U 	c #A0CF98",
"V 	c #B7DBB0",
"W 	c #D0E7CC",
"X 	c #EBF5E9",
"Y 	c #FFF5D2",
"Z 	c #FFE37C",
"` 	c #FFDA48",
" .	c #FED947",
"..	c #F8D343",
"+.	c #EFC83D",
"@.	c #E5BC37",
"#.	c #DDB231",
"$.	c #D4A72C",
"%.	c #CE9F28",
"&.	c #D5B361",
"*.	c #4EA83F",
"=.	c #44A334",
"-.	c #4DA63D",
";.	c #8CC581",
">.	c #B6CE77",
",.	c #F0D442",
"'.	c #F9D745",
").	c #FBD847",
"!.	c #FDD947",
"~.	c #FFDA49",
"{.	c #FEE792",
"].	c #FEFEFB",
"^.	c #44A233",
"/.	c #449E25",
"(.	c #449C15",
"_.	c #449C10",
":.	c #459C10",
"<.	c #57A215",
"[.	c #6BA81B",
"}.	c #84B122",
"|.	c #98B627",
"1.	c #BEC434",
"2.	c #DBCC3C",
"3.	c #FBD846",
"4.	c #FFE172",
"5.	c #FFF4CC",
"6.	c #FFFDFB",
"7.	c #43A233",
"8.	c #43A12E",
"9.	c #449C19",
"0.	c #489D12",
"a.	c #7AB033",
"b.	c #A0CF94",
"c.	c #D6EAD2",
"d.	c #E9F4E8",
"e.	c #FEFEFD",
"f.	c #44A232",
"g.	c #439E1F",
"h.	c #439C12",
"i.	c #449D1B",
"j.	c #44A12D",
"k.	c #44A333",
"l.	c #7BBD70",
"m.	c #F2F7F1",
"n.	c #C0DEB9",
"o.	c #A3C873",
"p.	c #77AD24",
"q.	c #69A71A",
"r.	c #5AA316",
"s.	c #4A9D11",
"t.	c #439C14",
"u.	c #439E26",
"v.	c #78BC6D",
"w.	c #F8FBF7",
"x.	c #FFFBF1",
"y.	c #FEE483",
"z.	c #FEDA4F",
"A.	c #F5D644",
"B.	c #EDD342",
"C.	c #E2CF3D",
"D.	c #CDC737",
"E.	c #94B527",
"F.	c #6DA81B",
"G.	c #439E20",
"H.	c #43A12F",
"I.	c #FCF9F1",
"J.	c #EDCA5C",
"K.	c #F3CB41",
"L.	c #FAD445",
"M.	c #FEDA48",
"N.	c #F8D748",
"O.	c #D5D56C",
"P.	c #BAD9A8",
"Q.	c #95CA8D",
"R.	c #81C077",
"S.	c #68B45B",
"T.	c #F9F4EA",
"U.	c #C79833",
"V.	c #C49327",
"W.	c #C59327",
"X.	c #C99928",
"Y.	c #DEB234",
"Z.	c #ECC33C",
"`.	c #FDD846",
" +	c #FFEFB6",
".+	c #FAFCFA",
"++	c #F8FAF8",
"@+	c #E7F2E5",
"#+	c #A7D2A0",
"$+	c #7EBE73",
"%+	c #46A337",
"&+	c #C49227",
"*+	c #C9992C",
"=+	c #986C57",
"-+	c #8B6CA6",
";+	c #A490CC",
">+	c #C6B9DF",
",+	c #E5E0F0",
"'+	c #FBFDFB",
")+	c #F2F8F1",
"!+	c #C39127",
"~+	c #AB7935",
"{+	c #491977",
"]+	c #2F008C",
"^+	c #3C1092",
"/+	c #7A5DB4",
"(+	c #A693CD",
"_+	c #E7E2F1",
":+	c #EFECF6",
"<+	c #F6F4FA",
"[+	c #FBFAFC",
"}+	c #B6842E",
"|+	c #6D3D5D",
"1+	c #3C0C81",
"2+	c #2F008B",
"3+	c #30018C",
"4+	c #401595",
"5+	c #5731A2",
"6+	c #6B4BAD",
"7+	c #876CBB",
"8+	c #C2B5DC",
"9+	c #FAF5EB",
"0+	c #CEA137",
"a+	c #C79628",
"b+	c #BF8D2A",
"c+	c #9E6D3D",
"d+	c #471779",
"e+	c #6948AC",
"f+	c #F7F5FA",
"g+	c #FEFBED",
"h+	c #F9D54F",
"i+	c #F5D150",
"j+	c #E8D7B4",
"k+	c #B2A1CF",
"l+	c #795CB5",
"m+	c #51299E",
"n+	c #FFFCF1",
"o+	c #FFEA9D",
"p+	c #FFFBF3",
"q+	c #FDFCFD",
"r+	c #EDEAF5",
"s+	c #C5B9DE",
"t+	c #A08BCA",
"u+	c #785BB4",
"v+	c #613EA7",
"w+	c #4C249B",
"x+	c #380B90",
"y+	c #FFFDFC",
"z+	c #FEFDFE",
"A+	c #F8F7FB",
"B+	c #F2F0F8",
"C+	c #EAE6F3",
"D+	c #CAC0E1",
"E+	c #8F77C1",
"F+	c #5D39A5",
"G+	c #F6F5FA",
"H+	c #D6CDE8",
"I+	c #B6A7D6",
"J+	c #967FC4",
"K+	c #7A5BB4",
"L+	c #8D74C0",
". . . . . . . . . . . . . . . . . . . . . . . . . . . . . . . . ",
". . . . . . . . . . . . . . . . . . . . . . . . . . . . . . . . ",
". . . . + @ # $ . . . . . . . . . . . . . . . . . . . . . . . . ",
". . . . % & * = - ; > . . . . . . . . . . . . . . . . . . . . . ",
". . . . , ' ) ) ) ) ! ~ { ] ^ / ( _ . . . . . . . . : < . . . . ",
". . . . , ' ) ) ) ) ) ) ) ) ) ) ) [ } | 1 2 3 4 5 6 7 8 . . . . ",
". . . . , ' ) ) ) ) ) ) ) ) ) ) ) ) ) ) 9 0 a b c d e f . . . . ",
". . . . g h ) ) ) ) ) ) ) ) ) ) ) ) ) ) i j k l m m n o . . . . ",
". . . . p q r s t u ) ) ) ) ) ) ) ) ) i v w x m m m n o . . . . ",
". . . . . . . . . > y z A B C D E i F G H m m m m m n o . . . . ",
". . . . I J $ . . . . . $ > K L M N O P m m m m m m n o . . . . ",
". . . . Q R S T U V W X _ . < Y Z ` `  ...+.@.#.$.%.&.o . . . . ",
". . . . Q *.=.=.=.=.=.=.-.;.>.,.'.).!. . .` ` ` ` ~.{.].. . . . ",
". . . . Q *.=.=.=.=.=.^./.(._.:.<.[.}.|.1.2.3.` 4.5.6.. . . . . ",
". . . . Q *.=.=.=.7.8.9._._._._._._._._._._.0.a.b.c.d.e.. . . . ",
". . . . Q *.=.=.f.g.h._._._._._._._._._._.i.j.k.=.=.l.J . . . . ",
". . . . $ m.n.o.p.q.r.s._._._._._._._.t.u.^.=.=.=.=.v.w.. . . . ",
". . . . . x.y.z. .A.B.C.D.E.F._._._.G.H.7.=.=.=.=.=.v.w.. . . . ",
". . . . I.J.K.L. .` ` ` ` M.!.N.O.P.Q.R.S.R =.=.=.=.v.w.. . . . ",
". . . . T.U.V.W.X.Y.Z.`.` ` `  +6.$ $ _ .+++@+#+$+%+v.w.. . . . ",
". . . . T.U.&+&+&+&+&+V.*+=+-+;+>+,+> . . . . . $ '+)+I . . . . ",
". . . . T.U.&+&+&+&+!+~+{+]+]+]+]+]+^+/+(+_+:+<+[+$ . . . . . . ",
". . . . T.U.&+&+&+}+|+1+2+]+]+]+]+]+]+]+]+3+4+5+6+7+8+p . . . . ",
". . . . 9+0+a+b+c+d+2+]+]+]+]+]+]+]+]+]+]+]+]+]+]+]+e+f+. . . . ",
". . . . g+h+i+j+k+l+m+]+]+]+]+]+]+]+]+]+]+]+]+]+]+]+e+f+. . . . ",
". . . . n+o+p+. . $ q+r+s+t+u+v+w+x+]+]+]+]+]+]+]+]+e+f+. . . . ",
". . . . < y+. . . . . . . $ z+A+B+C+D+E+F+]+]+]+]+]+e+f+. . . . ",
". . . . . . . . . . . . . . . . . . . $ _ G+H+I+J+K+L+A+. . . . ",
". . . . . . . . . . . . . . . . . . . . . . . . . . . . . . . . ",
". . . . . . . . . . . . . . . . . . . . . . . . . . . . . . . . ",
". . . . . . . . . . . . . . . . . . . . . . . . . . . . . . . . ",
". . . . . . . . . . . . . . . . . . . . . . . . . . . . . . . . "};
